<?xml version="1.0" standalone="no"?>
<!DOCTYPE svg PUBLIC "-//W3C//DTD SVG 20010904//EN"
 "http://www.w3.org/TR/2001/REC-SVG-20010904/DTD/svg10.dtd">
<svg version="1.0" xmlns="http://www.w3.org/2000/svg"
 width="224.000000pt" height="201.000000pt" viewBox="0 0 224.000000 201.000000"
 preserveAspectRatio="xMidYMid meet">

<g transform="translate(0.000000,201.000000) scale(0.100000,-0.100000)"
fill="#000000" stroke="none">
<path d="M1346 1686 c19 -8 36 -26 42 -43 9 -25 11 -25 11 -5 1 28 -32 62 -61
62 -20 -1 -18 -3 8 -14z"/>
<path d="M1175 1644 c-33 -26 -125 -69 -220 -104 -119 -44 -167 -78 -196 -137
l-22 -46 36 -201 c20 -111 37 -223 37 -249 0 -54 20 -105 52 -134 20 -18 20
-18 -1 24 -17 34 -21 61 -21 135 -1 51 -9 139 -18 196 -10 56 -15 102 -11 102
4 0 13 -7 20 -17 20 -23 89 -53 124 -52 25 0 22 2 -17 13 -63 17 -94 39 -118
86 -42 82 -12 174 70 216 25 13 92 46 150 74 58 27 121 63 140 79 36 31 31 43
-5 15z"/>
<path d="M1503 1619 c-47 -14 -41 -19 15 -12 54 6 69 -4 83 -60 8 -29 8 -28 5
12 -3 24 -8 47 -13 52 -14 14 -57 18 -90 8z"/>
<path d="M1290 1568 c-14 -5 -36 -20 -50 -33 -42 -40 -135 -91 -209 -114 -43
-14 -75 -30 -81 -42 -14 -26 -2 -67 25 -85 34 -22 151 -22 196 0 94 45 169
148 169 232 0 46 -12 56 -50 42z"/>
<path d="M1477 1502 c-36 -40 -60 -114 -60 -191 -1 -131 35 -191 114 -191 30
0 42 6 55 25 18 27 15 46 -25 155 -11 30 -20 78 -21 106 0 60 -17 114 -34 114
-7 0 -20 -8 -29 -18z"/>
<path d="M1584 1369 c3 -46 8 -57 59 -153 59 -108 18 -214 -91 -237 -34 -8
-34 -8 10 -5 89 6 132 58 132 161 1 55 -3 65 -42 120 -24 34 -49 83 -57 110
l-15 50 4 -46z"/>
<path d="M1288 1172 c-37 -19 -54 -34 -56 -49 -3 -21 1 -23 42 -23 25 0 48 -4
51 -10 3 -5 17 -10 30 -10 31 0 43 38 25 79 -17 42 -31 44 -92 13z"/>
<path d="M1153 964 c-40 -20 -86 -90 -110 -169 -15 -50 -18 -95 -18 -282 0
-215 1 -223 22 -244 41 -42 68 -4 104 148 24 107 56 185 124 303 79 138 85
219 18 249 -34 16 -103 13 -140 -5z"/>
<path d="M1431 874 c-22 -25 -54 -70 -70 -99 -38 -68 -126 -276 -141 -335 -26
-104 -63 -200 -85 -224 -30 -32 -81 -35 -118 -6 -33 26 -53 84 -67 193 -7 48
-15 87 -18 87 -3 0 -2 -43 1 -96 11 -157 61 -239 147 -239 42 0 87 26 100 58
4 12 25 78 45 147 66 228 164 457 223 522 19 21 32 38 29 38 -3 0 -23 -21 -46
-46z"/>
</g>
</svg>
